<?xml version="1.0" encoding="utf-8"?>
<svg version="1.1" xmlns:xlink="http://www.w3.org/1999/xlink" width="200px" height="82px" xmlns="http://www.w3.org/2000/svg">
  <defs>
    <mask fill="white" id="clip2">
      <path d="M 0 71.75  L 0 10.25  C 0 4.50999999999998  3.14285714285713 0  7.14285714285714 0  L 192.857142857143 0  C 196.857142857143 0  200 4.50999999999998  200 10.25  L 200 71.75  C 200 77.49  196.857142857143 82  192.857142857143 82  L 7.14285714285714 82  C 3.14285714285713 82  0 77.49  0 71.75  Z " fill-rule="evenodd" />
    </mask>
  </defs>
  <g transform="matrix(1 0 0 1 -240 -394 )">
    <path d="M 0 71.75  L 0 10.25  C 0 4.50999999999998  3.14285714285713 0  7.14285714285714 0  L 192.857142857143 0  C 196.857142857143 0  200 4.50999999999998  200 10.25  L 200 71.75  C 200 77.49  196.857142857143 82  192.857142857143 82  L 7.14285714285714 82  C 3.14285714285713 82  0 77.49  0 71.75  Z " fill-rule="nonzero" fill="#ffff80" stroke="none" transform="matrix(1 0 0 1 240 394 )" />
    <path d="M 0 71.75  L 0 10.25  C 0 4.50999999999998  3.14285714285713 0  7.14285714285714 0  L 192.857142857143 0  C 196.857142857143 0  200 4.50999999999998  200 10.25  L 200 71.75  C 200 77.49  196.857142857143 82  192.857142857143 82  L 7.14285714285714 82  C 3.14285714285713 82  0 77.49  0 71.75  Z " stroke-width="2" stroke="#000000" fill="none" transform="matrix(1 0 0 1 240 394 )" mask="url(#clip2)" />
  </g>
</svg>